<?xml version="1.0" encoding="UTF-8"?>
<svg xmlns="http://www.w3.org/2000/svg" viewBox="0 0 306.97 306.96">
  <g>
    <g>
      <path fill="#2ed3b7" stroke="#00000000" d="M153.49,38.54c15.75,0,31.01,3.14,45.07,9.14L41.26,178.72c-8.43-37.48,2.34-77.91,30.94-106.51,21.71-21.71,50.58-33.67,81.29-33.67M153.49,0c-39.28,0-78.57,14.99-108.54,44.96C-8.3,98.2-14.24,180.84,27.13,240.66L262.02,44.96C232.05,14.99,192.77,0,153.49,0h0Z"/>
      <path fill="#2ed3b7" stroke="#00000000" d="M259.26,108.48c17.75,41.87,9.58,92.2-24.51,126.28-21.7,21.7-50.57,33.66-81.28,33.66-8.55,0-16.98-.93-25.17-2.75l130.96-157.19M262.02,44.96l-195.7,234.9c26.14,18.07,56.64,27.11,87.15,27.11,39.28,0,78.57-14.99,108.53-44.94,59.95-59.95,59.95-157.13.02-217.06h0Z"/>
    </g>
  </g>
</svg>